# xmcd CD database file
#
# Track frame offsets:
#	150
#	16010
#	32502
#	49910
#	68255
#	79315
#	96447
#	113345
#	125862
#	146115
#	159662
#	176017
#	186147
#	199300
#
# Disc length: 2853 seconds
#
# Revision: 0
# Processed by: cddbd v1.5.1PL0 Copyright (c) Steve Scherf et al.
# Submitted via: CDex 1.51
#
DISCID=bd0b230e
DTITLE=Cecilia Dale - Standards in Bossa
DYEAR=2005
DGENRE=Jazz
TTITLE0=Night and Day
TTITLE1=I'm in the mood for love
TTITLE2=Cry me a river
TTITLE3=What's new
TTITLE4=Just one of those things
TTITLE5=Moonlight in Vermont
TTITLE6=As time goes by
TTITLE7=How high the moon
TTITLE8=Over the rainbow
TTITLE9=How about you
TTITLE10=Bewitched
TTITLE11=Makin whoopee
TTITLE12=Smile
TTITLE13=Tenderly
EXTD=YEAR: 2005
EXTT0=
EXTT1=
EXTT2=
EXTT3=
EXTT4=
EXTT5=
EXTT6=
EXTT7=
EXTT8=
EXTT9=
EXTT10=
EXTT11=
EXTT12=
EXTT13=
PLAYORDER=
